<svg id="logo-cp-reduzido" xmlns="http://www.w3.org/2000/svg" width="600" height="600" viewBox="0 0 600 600">
  <defs>
    <style>
      .cls-1, .cls-2 {
        fill: #fff;
      }

      .cls-1 {
        fill-rule: evenodd;
      }
    </style>
  </defs>
  <path id="Sigla" class="cls-1" d="M207.867,151.484q-54.492,0-88.867,42.383T84.625,300.313q0,66.21,32.227,106.64t88.281,40.43q53.512,0,87.5-33.789l-21.485-29.883q-21.68,28.518-61.914,28.516-36.914,0-60.254-30.372t-23.339-79.2q0-51.168,22.754-83.593t60.449-32.422q40.233,0,58.984,13.672l13.086-33.4q-26.367-15.426-73.047-15.43h0ZM405.523,334.3q110.157,0,110.157-96.484,0-83.4-124.61-83.4-9.183,0-53.515,1.953V442.5h39.062V332.344q22.266,1.954,28.906,1.953h0ZM397.906,189.57q77.536,0,77.539,52.344,0,57.23-72.656,57.227-1.368,0-26.172-1.953V191.523a157.643,157.643,0,0,1,21.289-1.953h0Z" transform="translate(0 0.5)"/>
  <rect id="Ret창ngulo_Arredondado_Inferior" data-name="Ret창ngulo Arredondado Inferior" class="cls-2" y="516.5" width="599" height="83" rx="10" ry="10"/>
  <rect id="Ret창ngulo_Arredondado_Superior" data-name="Ret창ngulo Arredondado Superior" class="cls-2" x="1" y="0.5" width="599" height="83" rx="10" ry="10"/>
</svg>
